<mxfile host="app.diagrams.net" modified="2023-06-01T07:24:53.875Z" agent="Mozilla/5.0 (Windows NT 10.0; Win64; x64) AppleWebKit/537.36 (KHTML, like Gecko) Chrome/113.0.0.0 Safari/537.36" etag="4v17oGcYNlyRaunIXVzx" version="21.3.4" type="github">
  <diagram name="第 1 页" id="vV2zMbp7ZWFQ6nNkdyA2">
    <mxGraphModel dx="2261" dy="-379" grid="1" gridSize="10" guides="1" tooltips="1" connect="1" arrows="1" fold="1" page="1" pageScale="1" pageWidth="827" pageHeight="1169" math="0" shadow="0">
      <root>
        <mxCell id="0" />
        <mxCell id="1" parent="0" />
        <mxCell id="wmdig9cED4wvvsoljVP5-1" value="" style="rounded=0;whiteSpace=wrap;html=1;dashed=1;fillColor=none;align=left;strokeWidth=2;strokeColor=#3399FF;" parent="1" vertex="1">
          <mxGeometry x="-40" y="1820" width="976" height="620" as="geometry" />
        </mxCell>
        <mxCell id="wmdig9cED4wvvsoljVP5-2" value="&lt;h1&gt;&lt;b&gt;&lt;font style=&quot;font-size: 36px;&quot;&gt;烟台市退役军人服务平台&lt;/font&gt;&lt;/b&gt;&lt;/h1&gt;&lt;div&gt;&lt;b&gt;&lt;font style=&quot;font-size: 36px;&quot;&gt;系统网络拓扑图&lt;/font&gt;&lt;/b&gt;&lt;/div&gt;" style="text;html=1;strokeColor=none;fillColor=none;align=center;verticalAlign=middle;whiteSpace=wrap;rounded=0;" parent="1" vertex="1">
          <mxGeometry x="178" y="1380" width="456" height="80" as="geometry" />
        </mxCell>
        <mxCell id="wmdig9cED4wvvsoljVP5-3" style="edgeStyle=orthogonalEdgeStyle;rounded=0;orthogonalLoop=1;jettySize=auto;html=1;strokeColor=#000000;strokeWidth=2;fontColor=#000000;endArrow=none;endFill=0;" parent="1" source="wmdig9cED4wvvsoljVP5-4" target="wmdig9cED4wvvsoljVP5-20" edge="1">
          <mxGeometry relative="1" as="geometry">
            <Array as="points">
              <mxPoint x="380" y="1970" />
            </Array>
          </mxGeometry>
        </mxCell>
        <mxCell id="wmdig9cED4wvvsoljVP5-4" value="" style="image;html=1;image=img/lib/clip_art/networking/Firewall_02_128x128.png" parent="1" vertex="1">
          <mxGeometry x="340" y="1825" width="80" height="80" as="geometry" />
        </mxCell>
        <mxCell id="wmdig9cED4wvvsoljVP5-5" value="退役军人事务局" style="image;html=1;image=img/lib/clip_art/computers/Monitor_128x128.png" parent="1" vertex="1">
          <mxGeometry x="384" y="1550" width="30" height="40" as="geometry" />
        </mxCell>
        <mxCell id="wmdig9cED4wvvsoljVP5-6" value="学校" style="image;html=1;image=img/lib/clip_art/computers/Monitor_128x128.png" parent="1" vertex="1">
          <mxGeometry x="234" y="1565" width="30" height="40" as="geometry" />
        </mxCell>
        <mxCell id="wmdig9cED4wvvsoljVP5-7" value="企业" style="image;html=1;image=img/lib/clip_art/computers/Monitor_128x128.png" parent="1" vertex="1">
          <mxGeometry x="174" y="1650" width="30" height="40" as="geometry" />
        </mxCell>
        <mxCell id="wmdig9cED4wvvsoljVP5-8" value="退役军人" style="image;html=1;image=img/lib/clip_art/telecommunication/iPhone_128x128.png" parent="1" vertex="1">
          <mxGeometry x="518" y="1570" width="50" height="50" as="geometry" />
        </mxCell>
        <mxCell id="wmdig9cED4wvvsoljVP5-9" value="互联网" style="ellipse;shape=cloud;whiteSpace=wrap;html=1;fillColor=#fff2cc;strokeColor=#d6b656;" parent="1" vertex="1">
          <mxGeometry x="324" y="1660" width="210" height="150" as="geometry" />
        </mxCell>
        <mxCell id="wmdig9cED4wvvsoljVP5-10" value="" style="html=1;outlineConnect=0;fillColor=#ffff88;strokeColor=#36393d;gradientDirection=north;strokeWidth=1;shape=mxgraph.networks.comm_link_edge;html=1;rounded=0;entryX=0.5;entryY=1;entryDx=0;entryDy=0;exitX=0.625;exitY=0.2;exitDx=0;exitDy=0;exitPerimeter=0;" parent="1" source="wmdig9cED4wvvsoljVP5-9" target="wmdig9cED4wvvsoljVP5-5" edge="1">
          <mxGeometry width="100" height="100" relative="1" as="geometry">
            <mxPoint x="224" y="1850" as="sourcePoint" />
            <mxPoint x="254" y="1700" as="targetPoint" />
          </mxGeometry>
        </mxCell>
        <mxCell id="wmdig9cED4wvvsoljVP5-11" value="" style="html=1;outlineConnect=0;fillColor=#ffff88;strokeColor=default;gradientDirection=north;strokeWidth=1;shape=mxgraph.networks.comm_link_edge;html=1;rounded=0;entryX=0.5;entryY=1;entryDx=0;entryDy=0;exitX=0.88;exitY=0.25;exitDx=0;exitDy=0;exitPerimeter=0;" parent="1" source="wmdig9cED4wvvsoljVP5-9" target="wmdig9cED4wvvsoljVP5-8" edge="1">
          <mxGeometry width="100" height="100" relative="1" as="geometry">
            <mxPoint x="600.25" y="1740" as="sourcePoint" />
            <mxPoint x="584" y="1620" as="targetPoint" />
          </mxGeometry>
        </mxCell>
        <mxCell id="wmdig9cED4wvvsoljVP5-12" value="" style="html=1;outlineConnect=0;fillColor=#ffff88;strokeColor=#36393d;gradientDirection=north;strokeWidth=1;shape=mxgraph.networks.comm_link_edge;html=1;rounded=0;entryX=0.5;entryY=1;entryDx=0;entryDy=0;exitX=0.07;exitY=0.4;exitDx=0;exitDy=0;exitPerimeter=0;" parent="1" source="wmdig9cED4wvvsoljVP5-9" target="wmdig9cED4wvvsoljVP5-7" edge="1">
          <mxGeometry width="100" height="100" relative="1" as="geometry">
            <mxPoint x="220.25" y="1815" as="sourcePoint" />
            <mxPoint x="204" y="1695" as="targetPoint" />
          </mxGeometry>
        </mxCell>
        <mxCell id="wmdig9cED4wvvsoljVP5-13" value="" style="html=1;outlineConnect=0;fillColor=#ffff88;strokeColor=#36393d;gradientDirection=north;strokeWidth=1;shape=mxgraph.networks.comm_link_edge;html=1;rounded=0;entryX=0.5;entryY=1;entryDx=0;entryDy=0;exitX=0.25;exitY=0.25;exitDx=0;exitDy=0;exitPerimeter=0;" parent="1" source="wmdig9cED4wvvsoljVP5-9" target="wmdig9cED4wvvsoljVP5-6" edge="1">
          <mxGeometry width="100" height="100" relative="1" as="geometry">
            <mxPoint x="445.25" y="1740" as="sourcePoint" />
            <mxPoint x="429" y="1620" as="targetPoint" />
          </mxGeometry>
        </mxCell>
        <mxCell id="wmdig9cED4wvvsoljVP5-14" value="" style="html=1;outlineConnect=0;fillColor=#ffff88;strokeColor=#36393d;gradientDirection=north;strokeWidth=1;shape=mxgraph.networks.comm_link_edge;html=1;rounded=0;entryX=0.55;entryY=0.95;entryDx=0;entryDy=0;entryPerimeter=0;" parent="1" source="wmdig9cED4wvvsoljVP5-4" target="wmdig9cED4wvvsoljVP5-9" edge="1">
          <mxGeometry width="100" height="100" relative="1" as="geometry">
            <mxPoint x="343.10638297872333" y="1900" as="sourcePoint" />
            <mxPoint x="374" y="1830" as="targetPoint" />
          </mxGeometry>
        </mxCell>
        <mxCell id="wmdig9cED4wvvsoljVP5-16" value="&lt;b&gt;互联网域&lt;/b&gt;" style="html=1;outlineConnect=0;fillColor=#CCCCCC;strokeColor=#6881B3;gradientColor=none;gradientDirection=north;strokeWidth=2;shape=mxgraph.networks.bus;gradientColor=none;gradientDirection=north;fontColor=#000000;perimeter=backbonePerimeter;backboneSize=20;" parent="1" vertex="1">
          <mxGeometry x="45" y="2040" width="185" height="20" as="geometry" />
        </mxCell>
        <mxCell id="wmdig9cED4wvvsoljVP5-17" style="edgeStyle=orthogonalEdgeStyle;rounded=0;orthogonalLoop=1;jettySize=auto;html=1;exitX=0.5;exitY=0;exitDx=0;exitDy=0;strokeColor=#000000;strokeWidth=2;fontColor=#000000;endArrow=none;endFill=0;" parent="1" source="wmdig9cED4wvvsoljVP5-18" target="wmdig9cED4wvvsoljVP5-16" edge="1">
          <mxGeometry relative="1" as="geometry" />
        </mxCell>
        <mxCell id="X8PI-VGRUF0kSfmnywWV-5" style="edgeStyle=orthogonalEdgeStyle;rounded=0;orthogonalLoop=1;jettySize=auto;html=1;strokeWidth=2;endArrow=none;endFill=0;" parent="1" source="wmdig9cED4wvvsoljVP5-18" target="wmdig9cED4wvvsoljVP5-23" edge="1">
          <mxGeometry relative="1" as="geometry" />
        </mxCell>
        <mxCell id="wmdig9cED4wvvsoljVP5-18" value="WEB服务器" style="image;html=1;image=img/lib/clip_art/computers/Server_Tower_128x128.png;fontColor=#000000;" parent="1" vertex="1">
          <mxGeometry x="98" y="2150" width="80" height="80" as="geometry" />
        </mxCell>
        <mxCell id="wmdig9cED4wvvsoljVP5-19" style="edgeStyle=orthogonalEdgeStyle;rounded=0;orthogonalLoop=1;jettySize=auto;html=1;strokeColor=#000000;strokeWidth=2;fontColor=#000000;endArrow=none;endFill=0;" parent="1" source="wmdig9cED4wvvsoljVP5-20" target="wmdig9cED4wvvsoljVP5-16" edge="1">
          <mxGeometry relative="1" as="geometry" />
        </mxCell>
        <mxCell id="wmdig9cED4wvvsoljVP5-20" value="" style="image;html=1;image=img/lib/clip_art/networking/Router_Icon_128x128.png" parent="1" vertex="1">
          <mxGeometry x="244" y="1930" width="80" height="80" as="geometry" />
        </mxCell>
        <mxCell id="wmdig9cED4wvvsoljVP5-22" style="edgeStyle=orthogonalEdgeStyle;rounded=0;orthogonalLoop=1;jettySize=auto;html=1;strokeColor=#000000;strokeWidth=2;fontSize=12;fontColor=#000000;endArrow=none;endFill=0;" parent="1" source="wmdig9cED4wvvsoljVP5-23" target="wmdig9cED4wvvsoljVP5-30" edge="1">
          <mxGeometry relative="1" as="geometry">
            <Array as="points">
              <mxPoint x="390" y="2170" />
            </Array>
          </mxGeometry>
        </mxCell>
        <mxCell id="X8PI-VGRUF0kSfmnywWV-7" style="edgeStyle=orthogonalEdgeStyle;rounded=0;orthogonalLoop=1;jettySize=auto;html=1;endArrow=none;endFill=0;strokeWidth=2;" parent="1" source="wmdig9cED4wvvsoljVP5-23" target="X8PI-VGRUF0kSfmnywWV-1" edge="1">
          <mxGeometry relative="1" as="geometry">
            <Array as="points">
              <mxPoint x="380" y="2350" />
            </Array>
          </mxGeometry>
        </mxCell>
        <mxCell id="wmdig9cED4wvvsoljVP5-23" value="应用服务器" style="image;html=1;image=img/lib/clip_art/computers/Server_Tower_128x128.png;fontColor=#000000;" parent="1" vertex="1">
          <mxGeometry x="350" y="2220" width="80" height="90" as="geometry" />
        </mxCell>
        <mxCell id="wmdig9cED4wvvsoljVP5-25" value="政务云" style="text;html=1;strokeColor=none;fillColor=none;align=center;verticalAlign=middle;whiteSpace=wrap;rounded=0;fontColor=#000000;fontStyle=1;fontSize=18;" parent="1" vertex="1">
          <mxGeometry x="44" y="1850" width="60" height="30" as="geometry" />
        </mxCell>
        <mxCell id="wmdig9cED4wvvsoljVP5-26" style="edgeStyle=orthogonalEdgeStyle;rounded=0;orthogonalLoop=1;jettySize=auto;html=1;strokeColor=#000000;strokeWidth=2;fontSize=12;fontColor=#000000;endArrow=none;endFill=0;" parent="1" source="wmdig9cED4wvvsoljVP5-27" target="wmdig9cED4wvvsoljVP5-30" edge="1">
          <mxGeometry relative="1" as="geometry">
            <Array as="points">
              <mxPoint x="590" y="2265" />
              <mxPoint x="590" y="2160" />
            </Array>
          </mxGeometry>
        </mxCell>
        <mxCell id="wmdig9cED4wvvsoljVP5-27" value="数据服务器" style="image;html=1;image=img/lib/clip_art/computers/Server_Tower_128x128.png;fontColor=#000000;" parent="1" vertex="1">
          <mxGeometry x="640" y="2225" width="80" height="80" as="geometry" />
        </mxCell>
        <mxCell id="wmdig9cED4wvvsoljVP5-28" style="edgeStyle=orthogonalEdgeStyle;rounded=0;orthogonalLoop=1;jettySize=auto;html=1;strokeColor=#000000;strokeWidth=2;fontSize=12;fontColor=#000000;endArrow=none;endFill=0;" parent="1" source="wmdig9cED4wvvsoljVP5-29" target="wmdig9cED4wvvsoljVP5-27" edge="1">
          <mxGeometry relative="1" as="geometry">
            <Array as="points">
              <mxPoint x="735" y="2130" />
              <mxPoint x="680" y="2130" />
            </Array>
          </mxGeometry>
        </mxCell>
        <mxCell id="MUmW_q9t8xfjBaTZVJD4-4" style="edgeStyle=orthogonalEdgeStyle;rounded=0;orthogonalLoop=1;jettySize=auto;html=1;strokeWidth=2;endArrow=none;endFill=0;" edge="1" parent="1" source="wmdig9cED4wvvsoljVP5-29" target="MUmW_q9t8xfjBaTZVJD4-1">
          <mxGeometry relative="1" as="geometry">
            <Array as="points">
              <mxPoint x="735" y="2130" />
              <mxPoint x="810" y="2130" />
            </Array>
          </mxGeometry>
        </mxCell>
        <mxCell id="wmdig9cED4wvvsoljVP5-29" value="&lt;b&gt;公共服务域&lt;/b&gt;" style="html=1;outlineConnect=0;fillColor=#CCCCCC;strokeColor=#6881B3;gradientColor=none;gradientDirection=north;strokeWidth=2;shape=mxgraph.networks.bus;gradientColor=none;gradientDirection=north;fontColor=#000000;perimeter=backbonePerimeter;backboneSize=20;" parent="1" vertex="1">
          <mxGeometry x="650" y="1970" width="170" height="80" as="geometry" />
        </mxCell>
        <mxCell id="MUmW_q9t8xfjBaTZVJD4-6" style="edgeStyle=orthogonalEdgeStyle;rounded=0;orthogonalLoop=1;jettySize=auto;html=1;endArrow=none;endFill=0;strokeWidth=2;" edge="1" parent="1" source="wmdig9cED4wvvsoljVP5-30" target="MUmW_q9t8xfjBaTZVJD4-1">
          <mxGeometry relative="1" as="geometry">
            <Array as="points">
              <mxPoint x="590" y="2160" />
              <mxPoint x="590" y="2360" />
              <mxPoint x="830" y="2360" />
            </Array>
          </mxGeometry>
        </mxCell>
        <mxCell id="wmdig9cED4wvvsoljVP5-30" value="开通网络访问策略" style="image;html=1;image=img/lib/clip_art/networking/Firewall_02_128x128.png" parent="1" vertex="1">
          <mxGeometry x="470" y="2120" width="80" height="80" as="geometry" />
        </mxCell>
        <mxCell id="X8PI-VGRUF0kSfmnywWV-1" value="中间件及存储服务器" style="image;html=1;image=img/lib/clip_art/computers/Server_Tower_128x128.png;fontColor=#000000;" parent="1" vertex="1">
          <mxGeometry x="109" y="2300" width="80" height="80" as="geometry" />
        </mxCell>
        <mxCell id="MUmW_q9t8xfjBaTZVJD4-1" value="数据共享交换服务器" style="image;html=1;image=img/lib/clip_art/computers/Server_Tower_128x128.png;fontColor=#000000;" vertex="1" parent="1">
          <mxGeometry x="780" y="2225" width="80" height="80" as="geometry" />
        </mxCell>
      </root>
    </mxGraphModel>
  </diagram>
</mxfile>
